<svg width="32" height="33" viewBox="0 0 32 33" fill="none" xmlns="http://www.w3.org/2000/svg">
<path d="M16.0003 20.5C17.0803 20.5 18.0003 20.1 18.8137 19.3134C19.6003 18.5 20.0003 17.58 20.0003 16.5C20.0003 15.42 19.6003 14.5 18.8137 13.6867C18.0003 12.9 17.0803 12.5 16.0003 12.5C14.9203 12.5 14.0003 12.9 13.187 13.6867C12.4003 14.5 12.0003 15.42 12.0003 16.5C12.0003 17.58 12.4003 18.5 13.187 19.3134C14.0003 20.1 14.9203 20.5 16.0003 20.5ZM16.0003 3.16669C19.667 3.16669 22.8003 4.50002 25.4003 7.10002C28.0003 9.70002 29.3337 12.8334 29.3337 16.5V18.4334C29.3337 19.7667 28.867 20.9 28.0003 21.8334C27.067 22.7267 26.0003 23.1667 24.667 23.1667C23.067 23.1667 21.747 22.5 20.747 21.1667C19.4137 22.5 17.8403 23.1667 16.0003 23.1667C14.1737 23.1667 12.6003 22.5 11.2803 21.22C10.0003 19.9 9.33366 18.34 9.33366 16.5C9.33366 14.6734 10.0003 13.1 11.2803 11.78C12.6003 10.5 14.1737 9.83335 16.0003 9.83335C17.8403 9.83335 19.4003 10.5 20.7203 11.78C22.0003 13.1 22.667 14.6734 22.667 16.5V18.4334C22.667 18.98 22.8803 19.46 23.2803 19.8734C23.6803 20.2867 24.147 20.5 24.667 20.5C25.227 20.5 25.6937 20.2867 26.0937 19.8734C26.4937 19.46 26.667 18.98 26.667 18.4334V16.5C26.667 13.58 25.6403 11.0734 23.5337 8.96669C21.427 6.86002 18.9203 5.83335 16.0003 5.83335C13.0803 5.83335 10.5737 6.86002 8.46699 8.96669C6.36033 11.0734 5.33366 13.58 5.33366 16.5C5.33366 19.42 6.36033 21.9267 8.46699 24.0334C10.5737 26.14 13.0803 27.1667 16.0003 27.1667H22.667V29.8334H16.0003C12.3337 29.8334 9.20033 28.5 6.60033 25.9C4.00033 23.3 2.66699 20.1667 2.66699 16.5C2.66699 12.8334 4.00033 9.70002 6.60033 7.10002C9.20033 4.50002 12.3337 3.16669 16.0003 3.16669Z" fill="white"/>
</svg>
