<svg width="20" height="22" viewBox="0 0 20 22" fill="none" xmlns="http://www.w3.org/2000/svg">
<path d="M7.4 1.00049H1.6C1.26863 1.00049 1 1.26912 1 1.60049V5.40049C1 5.73186 1.26863 6.00049 1.6 6.00049H7.4C7.73137 6.00049 8 5.73186 8 5.40049V1.60049C8 1.26912 7.73137 1.00049 7.4 1.00049Z" stroke="#404A5D" stroke-width="1.5"/>
<path d="M12.9 16.0005H7.1C6.76863 16.0005 6.5 16.2691 6.5 16.6005V20.4005C6.5 20.7319 6.76863 21.0005 7.1 21.0005H12.9C13.2314 21.0005 13.5 20.7319 13.5 20.4005V16.6005C13.5 16.2691 13.2314 16.0005 12.9 16.0005Z" stroke="#404A5D" stroke-width="1.5"/>
<path d="M18.4 1.00049H12.6C12.2686 1.00049 12 1.26912 12 1.60049V5.40049C12 5.73186 12.2686 6.00049 12.6 6.00049H18.4C18.7314 6.00049 19 5.73186 19 5.40049V1.60049C19 1.26912 18.7314 1.00049 18.4 1.00049Z" stroke="#404A5D" stroke-width="1.5"/>
<path d="M4.5 6.00049V9.50049C4.5 10.0309 4.71071 10.5396 5.08579 10.9147C5.46086 11.2898 5.96957 11.5005 6.5 11.5005H13.5C14.0304 11.5005 14.5391 11.2898 14.9142 10.9147C15.2893 10.5396 15.5 10.0309 15.5 9.50049V6.00049M10 11.5005V16.0005" stroke="#404A5D" stroke-width="1.5"/>
</svg>
