<svg width="33" height="33" viewBox="0 0 33 33" fill="none" xmlns="http://www.w3.org/2000/svg">
<path fillRule="evenodd" clipRule="evenodd" d="M16.5131 0.702148C7.50815 0.702148 0.228516 8.03545 0.228516 17.1077C0.228516 24.3597 4.89283 30.4984 11.3635 32.671C12.1725 32.8343 12.4688 32.318 12.4688 31.8837C12.4688 31.5034 12.4421 30.1997 12.4421 28.8414C7.91215 29.8194 6.96882 26.8857 6.96882 26.8857C6.24082 24.9844 5.16216 24.4957 5.16216 24.4957C3.6795 23.4907 5.27016 23.4907 5.27016 23.4907C6.91482 23.5994 7.77782 25.1747 7.77782 25.1747C9.23348 27.6734 11.5791 26.9674 12.5228 26.5327C12.6575 25.4734 13.0891 24.74 13.5475 24.3327C9.93448 23.9524 6.13316 22.5401 6.13316 16.2384C6.13316 14.4458 6.77982 12.9791 7.80448 11.8384C7.64282 11.4311 7.07649 9.74678 7.96648 7.49245C7.96648 7.49245 9.34148 7.05779 12.4418 9.17645C13.7692 8.81734 15.138 8.63465 16.5131 8.63312C17.8881 8.63312 19.2898 8.82345 20.5841 9.17645C23.6848 7.05779 25.0597 7.49245 25.0597 7.49245C25.9497 9.74678 25.3831 11.4311 25.2214 11.8384C26.2731 12.9791 26.8931 14.4458 26.8931 16.2384C26.8931 22.5401 23.0918 23.9251 19.4518 24.3327C20.0451 24.8487 20.5571 25.8264 20.5571 27.3747C20.5571 29.5747 20.5304 31.3404 20.5304 31.8834C20.5304 32.318 20.8271 32.8344 21.6358 32.6714C28.1064 30.498 32.7707 24.3597 32.7707 17.1077C32.7974 8.03545 25.4911 0.702148 16.5131 0.702148Z" fill="#404A5D"/>
</svg>
