<svg width="24" height="24" viewBox="0 0 24 24" fill="none" xmlns="http://www.w3.org/2000/svg">
<mask id="path-1-inside-1_33_5140" fill="white">
<path d="M5.41177 8.73529H0.705883V23.7941H5.41177V8.73529ZM5.83529 3.55882C5.83778 3.20286 5.77012 2.8499 5.63618 2.52008C5.50225 2.19027 5.30467 1.89007 5.05471 1.63662C4.80476 1.38317 4.50733 1.18143 4.1794 1.04293C3.85148 0.904428 3.49949 0.831875 3.14353 0.829412H3.05882C2.33494 0.829412 1.6407 1.11697 1.12884 1.62884C0.616974 2.1407 0.329412 2.83494 0.329412 3.55882C0.329412 4.28271 0.616974 4.97695 1.12884 5.48881C1.6407 6.00067 2.33494 6.28824 3.05882 6.28824C3.41481 6.29699 3.76903 6.23552 4.10126 6.10733C4.43348 5.97915 4.73718 5.78675 4.99502 5.54115C5.25286 5.29554 5.45979 5.00154 5.60396 4.67594C5.74814 4.35034 5.82675 3.99952 5.83529 3.64353V3.55882ZM23.2941 14.6459C23.2941 10.1188 20.4141 8.35882 17.5529 8.35882C16.6161 8.31192 15.6834 8.51145 14.8478 8.93752C14.0121 9.36359 13.3028 10.0013 12.7906 10.7871H12.6588V8.73529H8.23529V23.7941H12.9412V15.7847C12.8732 14.9644 13.1315 14.1504 13.6602 13.5195C14.1889 12.8886 14.9452 12.4918 15.7647 12.4153H15.9435C17.44 12.4153 18.5506 13.3565 18.5506 15.7282V23.7941H23.2565L23.2941 14.6459Z"/>
</mask>
<path d="M5.41177 8.73529H0.705883V23.7941H5.41177V8.73529ZM5.83529 3.55882C5.83778 3.20286 5.77012 2.8499 5.63618 2.52008C5.50225 2.19027 5.30467 1.89007 5.05471 1.63662C4.80476 1.38317 4.50733 1.18143 4.1794 1.04293C3.85148 0.904428 3.49949 0.831875 3.14353 0.829412H3.05882C2.33494 0.829412 1.6407 1.11697 1.12884 1.62884C0.616974 2.1407 0.329412 2.83494 0.329412 3.55882C0.329412 4.28271 0.616974 4.97695 1.12884 5.48881C1.6407 6.00067 2.33494 6.28824 3.05882 6.28824C3.41481 6.29699 3.76903 6.23552 4.10126 6.10733C4.43348 5.97915 4.73718 5.78675 4.99502 5.54115C5.25286 5.29554 5.45979 5.00154 5.60396 4.67594C5.74814 4.35034 5.82675 3.99952 5.83529 3.64353V3.55882ZM23.2941 14.6459C23.2941 10.1188 20.4141 8.35882 17.5529 8.35882C16.6161 8.31192 15.6834 8.51145 14.8478 8.93752C14.0121 9.36359 13.3028 10.0013 12.7906 10.7871H12.6588V8.73529H8.23529V23.7941H12.9412V15.7847C12.8732 14.9644 13.1315 14.1504 13.6602 13.5195C14.1889 12.8886 14.9452 12.4918 15.7647 12.4153H15.9435C17.44 12.4153 18.5506 13.3565 18.5506 15.7282V23.7941H23.2565L23.2941 14.6459Z" fill="black"/>
<path d="M-1.64706 28.5V25.75V28.5ZM-4 26.1471H-6.75H-4ZM28 26.1471H25.25C25.25 26.0418 25.2918 25.9408 25.3663 25.8663L27.3108 27.8108L29.2554 29.7554C30.2124 28.7984 30.75 27.5004 30.75 26.1471H28ZM27.3108 27.8108L25.3663 25.8663C25.4408 25.7918 25.5418 25.75 25.6471 25.75V28.5V31.25C27.0004 31.25 28.2984 30.7124 29.2554 29.7554L27.3108 27.8108ZM25.6471 28.5V25.75H-1.64706V28.5V31.25H25.6471V28.5ZM-1.64706 28.5V25.75C-1.54176 25.75 -1.44077 25.7918 -1.3663 25.8663L-3.31084 27.8108L-5.25538 29.7554C-4.29839 30.7124 -3.00043 31.25 -1.64706 31.25V28.5ZM-3.31084 27.8108L-1.3663 25.8663C-1.29183 25.9408 -1.25 26.0418 -1.25 26.1471H-4H-6.75C-6.75 27.5004 -6.21237 28.7984 -5.25538 29.7554L-3.31084 27.8108ZM-4 26.1471H-1.25V-1.14706H-4H-6.75V26.1471H-4ZM-4 -1.14706H-1.25C-1.25 -1.04175 -1.29183 -0.940759 -1.3663 -0.866296L-3.31084 -2.81084L-5.25538 -4.75538C-6.21237 -3.7984 -6.75 -2.50044 -6.75 -1.14706H-4ZM-3.31084 -2.81084L-1.3663 -0.866296C-1.44076 -0.791833 -1.54175 -0.75 -1.64706 -0.75V-3.5V-6.25C-3.00044 -6.25 -4.2984 -5.71237 -5.25538 -4.75538L-3.31084 -2.81084ZM5.41177 8.73529H10.9118V3.23529H5.41177V8.73529ZM0.705883 8.73529V3.23529H-4.79412V8.73529H0.705883ZM0.705883 23.7941H-4.79412V29.2941H0.705883V23.7941ZM5.41177 23.7941V29.2941H10.9118V23.7941H5.41177ZM5.83529 3.55882L0.335428 3.5205L0.335295 3.53966V3.55882H5.83529ZM3.14353 0.829412L3.18159 -4.67046L3.16256 -4.67059H3.14353V0.829412ZM3.05882 0.829412V-4.67059V0.829412ZM3.05882 6.28824L3.19409 0.789899L3.12647 0.788236H3.05882V6.28824ZM5.83529 3.64353L11.3337 3.77555L11.3353 3.70955V3.64353H5.83529ZM23.2941 14.6459L28.7941 14.6685L28.7941 14.6572V14.6459H23.2941ZM17.5529 8.35882L17.2779 13.8519L17.4153 13.8588H17.5529V8.35882ZM12.7906 10.7871V16.2871H15.7706L17.398 13.7907L12.7906 10.7871ZM12.6588 10.7871H7.15882V16.2871H12.6588V10.7871ZM12.6588 8.73529H18.1588V3.23529H12.6588V8.73529ZM8.23529 8.73529V3.23529H2.73529V8.73529H8.23529ZM8.23529 23.7941H2.73529V29.2941H8.23529V23.7941ZM12.9412 23.7941V29.2941H18.4412V23.7941H12.9412ZM12.9412 15.7847H18.4412V15.557L18.4224 15.3302L12.9412 15.7847ZM15.7647 12.4153V6.91529H15.5085L15.2534 6.93911L15.7647 12.4153ZM18.5506 23.7941H13.0506V29.2941H18.5506V23.7941ZM23.2565 23.7941V29.2941H28.7339L28.7564 23.8168L23.2565 23.7941ZM5.41177 8.73529V3.23529H0.705883V8.73529V14.2353H5.41177V8.73529ZM0.705883 8.73529H-4.79412V23.7941H0.705883H6.20588V8.73529H0.705883ZM0.705883 23.7941V29.2941H5.41177V23.7941V18.2941H0.705883V23.7941ZM5.41177 23.7941H10.9118V8.73529H5.41177H-0.0882349V23.7941H5.41177ZM5.83529 3.55882L11.3352 3.59715C11.3427 2.51892 11.1377 1.44976 10.732 0.450723L5.63618 2.52008L0.540329 4.58944C0.4025 4.25004 0.332876 3.88681 0.335428 3.5205L5.83529 3.55882ZM5.63618 2.52008L10.732 0.450723C10.3263 -0.548312 9.72784 -1.45765 8.97071 -2.22537L5.05471 1.63662L1.13871 5.4986C0.88149 5.23778 0.678158 4.92885 0.540329 4.58944L5.63618 2.52008ZM5.05471 1.63662L8.97071 -2.22537C8.21358 -2.99309 7.31264 -3.60417 6.31934 -4.0237L4.1794 1.04293L2.03947 6.10955C1.70201 5.96703 1.39594 5.75943 1.13871 5.4986L5.05471 1.63662ZM4.1794 1.04293L6.31934 -4.0237C5.32604 -4.44322 4.25983 -4.66299 3.18159 -4.67046L3.14353 0.829412L3.10547 6.32928C2.73915 6.32675 2.37692 6.25208 2.03947 6.10955L4.1794 1.04293ZM3.14353 0.829412V-4.67059H3.05882V0.829412V6.32941H3.14353V0.829412ZM3.05882 0.829412V-4.67059C0.876246 -4.67059 -1.21694 -3.80356 -2.76025 -2.26025L1.12884 1.62884L5.01793 5.51793C4.49834 6.03751 3.79363 6.32941 3.05882 6.32941V0.829412ZM1.12884 1.62884L-2.76025 -2.26025C-4.30356 -0.716936 -5.17059 1.37625 -5.17059 3.55882H0.329412H5.82941C5.82941 4.29363 5.53751 4.99834 5.01793 5.51793L1.12884 1.62884ZM0.329412 3.55882H-5.17059C-5.17059 5.7414 -4.30356 7.83458 -2.76025 9.3779L1.12884 5.48881L5.01793 1.59972C5.53751 2.11931 5.82941 2.82402 5.82941 3.55882H0.329412ZM1.12884 5.48881L-2.76025 9.3779C-1.21693 10.9212 0.876248 11.7882 3.05882 11.7882V6.28824V0.788236C3.79363 0.788236 4.49834 1.08014 5.01793 1.59972L1.12884 5.48881ZM3.05882 6.28824L2.92356 11.7866C4.00187 11.8131 5.07485 11.6269 6.08117 11.2386L4.10126 6.10733L2.12134 0.976061C2.46322 0.844147 2.82775 0.780887 3.19409 0.789899L3.05882 6.28824ZM4.10126 6.10733L6.08117 11.2386C7.08748 10.8503 8.00744 10.2675 8.78847 9.52359L4.99502 5.54115L1.20158 1.55871C1.46693 1.30596 1.77947 1.10797 2.12134 0.976061L4.10126 6.10733ZM4.99502 5.54115L8.78847 9.52359C9.56949 8.77963 10.1963 7.88907 10.633 6.9028L5.60396 4.67594L0.574938 2.44908C0.723305 2.11402 0.936241 1.81146 1.20158 1.55871L4.99502 5.54115ZM5.60396 4.67594L10.633 6.9028C11.0697 5.91654 11.3078 4.85388 11.3337 3.77555L5.83529 3.64353L0.336879 3.51151C0.345675 3.14516 0.426571 2.78414 0.574938 2.44908L5.60396 4.67594ZM5.83529 3.64353H11.3353V3.55882H5.83529H0.335295V3.64353H5.83529ZM23.2941 14.6459H28.7941C28.7941 11.156 27.6421 8.01742 25.2494 5.78405C22.9435 3.63177 20.0605 2.85882 17.5529 2.85882V8.35882V13.8588C17.9065 13.8588 17.8941 13.9659 17.7436 13.8254C17.6676 13.7545 17.6574 13.7065 17.6798 13.7636C17.7074 13.8338 17.7941 14.0968 17.7941 14.6459H23.2941ZM17.5529 8.35882L17.828 2.86571C15.9308 2.77071 14.0418 3.1748 12.3494 4.03769L14.8478 8.93752L17.3461 13.8373C17.325 13.8481 17.3015 13.8531 17.2779 13.8519L17.5529 8.35882ZM14.8478 8.93752L12.3494 4.03769C10.6571 4.90057 9.2206 6.19209 8.18319 7.78342L12.7906 10.7871L17.398 13.7907C17.3851 13.8105 17.3672 13.8266 17.3461 13.8373L14.8478 8.93752ZM12.7906 10.7871V5.28706H12.6588V10.7871V16.2871H12.7906V10.7871ZM12.6588 10.7871H18.1588V8.73529H12.6588H7.15882V10.7871H12.6588ZM12.6588 8.73529V3.23529H8.23529V8.73529V14.2353H12.6588V8.73529ZM8.23529 8.73529H2.73529V23.7941H8.23529H13.7353V8.73529H8.23529ZM8.23529 23.7941V29.2941H12.9412V23.7941V18.2941H8.23529V23.7941ZM12.9412 23.7941H18.4412V15.7847H12.9412H7.44118V23.7941H12.9412ZM12.9412 15.7847L18.4224 15.3302C18.4741 15.9537 18.2777 16.5725 17.8758 17.0521L13.6602 13.5195L9.44467 9.98693C7.98544 11.7283 7.27223 13.9751 7.45999 16.2392L12.9412 15.7847ZM13.6602 13.5195L17.8758 17.0521C17.4739 17.5317 16.899 17.8333 16.276 17.8915L15.7647 12.4153L15.2534 6.93911C12.9913 7.15032 10.9039 8.24557 9.44467 9.98693L13.6602 13.5195ZM15.7647 12.4153V17.9153H15.9435V12.4153V6.91529H15.7647V12.4153ZM15.9435 12.4153V17.9153C15.5047 17.9153 14.4838 17.7364 13.6668 16.8015C12.9476 15.9785 13.0506 15.3156 13.0506 15.7282H18.5506H24.0506C24.0506 13.7691 23.5983 11.4497 21.9497 9.56317C20.2033 7.56476 17.8788 6.91529 15.9435 6.91529V12.4153ZM18.5506 15.7282H13.0506V23.7941H18.5506H24.0506V15.7282H18.5506ZM18.5506 23.7941V29.2941H23.2565V23.7941V18.2941H18.5506V23.7941ZM23.2565 23.7941L28.7564 23.8168L28.7941 14.6685L23.2941 14.6459L17.7942 14.6233L17.7565 23.7715L23.2565 23.7941Z" fill="black" mask="url(#path-1-inside-1_33_5140)"/>
</svg>
