<svg width="20" height="27" viewBox="0 0 20 27" fill="none" xmlns="http://www.w3.org/2000/svg">
<path d="M10.0003 12.8334C9.11627 12.8334 8.26842 12.4822 7.6433 11.857C7.01818 11.2319 6.66699 10.3841 6.66699 9.50002C6.66699 8.61597 7.01818 7.76812 7.6433 7.143C8.26842 6.51788 9.11627 6.16669 10.0003 6.16669C10.8844 6.16669 11.7322 6.51788 12.3573 7.143C12.9825 7.76812 13.3337 8.61597 13.3337 9.50002C13.3337 9.93776 13.2474 10.3712 13.0799 10.7756C12.9124 11.1801 12.6669 11.5475 12.3573 11.857C12.0478 12.1666 11.6804 12.4121 11.2759 12.5796C10.8715 12.7471 10.4381 12.8334 10.0003 12.8334ZM10.0003 0.166687C7.52497 0.166687 5.151 1.15002 3.40066 2.90036C1.65032 4.6507 0.666992 7.02467 0.666992 9.50002C0.666992 16.5 10.0003 26.8334 10.0003 26.8334C10.0003 26.8334 19.3337 16.5 19.3337 9.50002C19.3337 7.02467 18.3503 4.6507 16.6 2.90036C14.8496 1.15002 12.4757 0.166687 10.0003 0.166687Z" fill="white"/>
</svg>
