<svg width="32" height="33" viewBox="0 0 32 33" fill="none" xmlns="http://www.w3.org/2000/svg">
<path d="M8.82667 14.8867C10.7467 18.66 13.84 21.7533 17.6133 23.6733L20.5467 20.74C20.92 20.3667 21.44 20.26 21.9067 20.4067C23.4 20.9 25 21.1667 26.6667 21.1667C27.0203 21.1667 27.3594 21.3071 27.6095 21.5572C27.8595 21.8072 28 22.1464 28 22.5V27.1667C28 27.5203 27.8595 27.8594 27.6095 28.1095C27.3594 28.3595 27.0203 28.5 26.6667 28.5C20.6551 28.5 14.8897 26.1119 10.6389 21.8611C6.38809 17.6103 4 11.8449 4 5.83333C4 5.47971 4.14048 5.14057 4.39052 4.89052C4.64057 4.64048 4.97971 4.5 5.33333 4.5H10C10.3536 4.5 10.6928 4.64048 10.9428 4.89052C11.1929 5.14057 11.3333 5.47971 11.3333 5.83333C11.3333 7.5 11.6 9.1 12.0933 10.5933C12.24 11.06 12.1333 11.58 11.76 11.9533L8.82667 14.8867Z" fill="white"/>
</svg>
