<svg width="24" height="24" viewBox="0 0 24 24" fill="none" xmlns="http://www.w3.org/2000/svg">
<path d="M12.4461 0.000488281C13.2317 1.13282 13.9476 2.31198 14.5898 3.53142C14.6843 3.51805 14.7796 3.51129 14.8751 3.51118C15.2603 3.51127 15.6377 3.61982 15.9641 3.82443C16.2905 4.02904 16.5527 4.32142 16.7207 4.66811C17.6338 4.58645 18.5497 4.5381 19.4664 4.52315C19.9944 4.51513 20.5248 4.51804 21.0576 4.5319C19.0389 1.92951 15.9518 0.200967 12.4461 0.000488281ZM10.7837 0.0223686C10.7435 0.0256506 10.703 0.0278386 10.6628 0.0313942C9.73975 1.92021 9.0177 3.7866 8.5016 5.62865C8.72294 5.76562 8.91619 5.94346 9.07103 6.15268C10.3153 5.77643 11.5777 5.46332 12.8536 5.21457C12.9217 4.81914 13.1043 4.45237 13.3787 4.15966C12.6411 2.76096 11.7787 1.38141 10.7837 0.0223686ZM9.02235 0.30189C6.17068 0.981085 3.676 2.70196 2.02831 5.1265C3.29069 5.41618 4.54049 5.75817 5.77449 6.15159C5.94072 5.92753 6.15091 5.73973 6.3922 5.59969C6.6335 5.45964 6.90083 5.37029 7.17784 5.3371C7.63596 3.6679 8.25079 1.98804 9.02235 0.30189ZM20.2696 5.88629C19.1259 5.87891 17.9941 5.92568 16.8733 6.02304C16.7736 6.45551 16.5364 6.844 16.1972 7.13019C16.5743 8.14445 16.8954 9.17867 17.1591 10.2282C17.4271 10.2566 17.6868 10.3376 17.9235 10.4665C18.1601 10.5953 18.3691 10.7696 18.5384 10.9792C20.1239 10.5045 21.7386 10.1332 23.3723 9.86742C23.1522 8.48565 22.6855 7.15469 21.9946 5.93798C21.4166 5.90753 20.8416 5.89049 20.2696 5.88629ZM1.29422 6.36821C0.702298 7.52056 0.306235 8.76338 0.122256 10.0457C1.84314 9.05784 3.59329 8.19576 5.37353 7.46441L5.37298 7.45621C4.05141 7.03446 2.68991 6.67535 1.29422 6.36821ZM13.0806 6.55528C11.8636 6.79262 10.6593 7.09112 9.47226 7.44964C9.47136 7.47291 9.47008 7.49616 9.46843 7.51938C11.5883 8.41759 13.6246 9.50161 15.5533 10.7588C15.643 10.6765 15.7397 10.6024 15.8424 10.5372C15.5921 9.5463 15.2875 8.56988 14.93 7.61238L14.8751 7.61347C14.5087 7.61332 14.1491 7.51508 13.8336 7.32894C13.5181 7.14281 13.2582 6.87557 13.0809 6.55501M5.88225 8.7269C3.88786 9.54906 1.9282 10.5438 0.00109407 11.7018L0 11.7398C0 14.8485 1.2015 17.6688 3.16335 19.7691C4.28222 18.7681 5.44977 17.8229 6.66173 16.9369C6.14755 14.3936 6.07288 11.7937 6.40984 9.15713C6.2112 9.04438 6.0328 8.89925 5.88198 8.72772M8.92361 8.77121C8.60851 9.10967 8.18829 9.33173 7.73113 9.40136C7.44341 11.6701 7.48443 13.8994 7.87008 16.0869C10.1013 14.573 12.4409 13.3002 14.8915 12.2814V12.2685C14.8917 12.1687 14.8992 12.0691 14.9139 11.9704C13.0181 10.7249 11.0131 9.65409 8.92361 8.77121ZM23.5085 11.2311C21.9833 11.4834 20.4756 11.8313 18.994 12.2726C18.9934 12.57 18.9282 12.8637 18.8028 13.1333C20.105 14.1974 21.3356 15.346 22.4867 16.5718C23.1707 15.0529 23.5234 13.4057 23.5213 11.7398C23.5213 11.5692 23.5159 11.3999 23.5085 11.2311ZM15.3531 13.5635C12.8435 14.6113 10.4544 15.9384 8.17667 17.531C8.67445 19.538 9.46679 21.5086 10.5641 23.4406C10.9576 23.4805 11.3564 23.5005 11.7607 23.5005C13.3557 23.5005 14.8751 23.1832 16.2606 22.6105C16.7237 19.7622 16.8147 16.9843 16.5155 14.2741C16.0584 14.1766 15.6483 13.9259 15.3531 13.5635ZM17.8642 14.127C18.1459 16.6569 18.1035 19.2388 17.752 21.8649C19.4135 20.8816 20.808 19.5052 21.813 17.8567C20.5894 16.5191 19.2696 15.2727 17.8642 14.1275M7.00334 18.3819C6.02283 19.1207 5.07306 19.8995 4.15644 20.7162C5.51604 21.8709 7.12154 22.6995 8.85031 23.1389C8.05196 21.581 7.43849 19.9936 7.00334 18.3819Z" fill="#404A5D"/>
</svg>
