<svg width="32" height="32" viewBox="0 0 32 32" fill="none" xmlns="http://www.w3.org/2000/svg">
<g clipPath="url(#clip0_33_4682)">
<path fillRule="evenodd" clipRule="evenodd" d="M21.0174 0.502641C20.5691 -0.259138 19.5818 -0.523585 18.8126 -0.0880522C18.0434 0.347497 17.7834 1.3181 18.2319 2.07986L24.9849 13.5507L15.5212 4.26969C14.8901 3.65075 13.8668 3.65075 13.2357 4.26969C12.6045 4.88864 12.6045 5.89213 13.2357 6.51108L22.83 15.9203L11.2314 9.35304C10.4622 8.91751 9.47503 9.18196 9.02656 9.94374C8.5781 10.7055 8.83813 11.6761 9.60736 12.1117L21.5035 18.8473L8.41887 15.4089C7.56392 15.1844 6.68199 15.6935 6.44899 16.5461C6.21601 17.3989 6.72023 18.2722 7.57517 18.4969L21.282 22.0987H7.99702C7.11306 22.0987 6.39645 22.8153 6.39645 23.6993C6.39645 24.5833 7.11306 25.2998 7.99702 25.2998H24.0028C24.8868 25.2998 25.6034 24.5833 25.6034 23.6993C25.6034 23.1908 25.3663 22.7378 24.9966 22.4446C25.2765 22.2363 25.4913 21.9369 25.5901 21.5759C25.7092 21.1398 25.6355 20.6982 25.4206 20.3408C25.7359 20.21 26.0126 19.9805 26.1977 19.6661C26.4189 19.2905 26.4677 18.8641 26.3683 18.4763C26.6972 18.4271 27.0136 18.2784 27.2668 18.03C27.5654 17.7373 27.7227 17.3586 27.7389 16.9751C28.0751 17.0178 28.4269 16.9568 28.7421 16.7784C29.5113 16.3429 29.7714 15.3723 29.3229 14.6104L21.0174 0.502641ZM3.19529 23.6993C3.19529 22.8153 2.47868 22.0987 1.59472 22.0987C0.710751 22.0987 -0.00585938 22.8153 -0.00585938 23.6993V25.2998C-0.00585938 28.8358 2.86055 31.7021 6.39645 31.7021H25.6034C29.1392 31.7021 32.0057 28.8358 32.0057 25.2998V23.6993C32.0057 22.8153 31.2891 22.0987 30.4051 22.0987C29.5211 22.0987 28.8045 22.8153 28.8045 23.6993V25.2998C28.8045 27.0678 27.3714 28.501 25.6034 28.501H6.39645C4.6285 28.501 3.19529 27.0678 3.19529 25.2998V23.6993Z" fill="#404A5D"/>
</g>
<defs>
<clipPath id="clip0_33_4682">
<rect width="32" height="32" fill="white"/>
</clipPath>
</defs>
</svg>
